<?xml version="1.0" encoding="utf-8"?>
<!-- Generator: Adobe Illustrator 23.0.1, SVG Export Plug-In . SVG Version: 6.00 Build 0)  -->
<svg version="1.1" id="图层_1" xmlns="http://www.w3.org/2000/svg" xmlns:xlink="http://www.w3.org/1999/xlink" x="0px" y="0px"
	 viewBox="0 0 170.4 170" style="enable-background:new 0 0 170.4 170;" xml:space="preserve">
<style type="text/css">
	.st0{fill-rule:evenodd;clip-rule:evenodd;fill:#A29F9F;}
	.st1{fill-rule:evenodd;clip-rule:evenodd;fill:#2F3648;}
	.st2{fill-rule:evenodd;clip-rule:evenodd;fill:#FEFEFE;}
	.st3{fill-rule:evenodd;clip-rule:evenodd;fill:#DCDCDC;}
	.st4{fill-rule:evenodd;clip-rule:evenodd;fill:#3B4357;}
	.st5{fill-rule:evenodd;clip-rule:evenodd;fill:#434D5C;}
	.st6{fill-rule:evenodd;clip-rule:evenodd;fill:#332C2B;}
	.st7{fill-rule:evenodd;clip-rule:evenodd;fill:#DCDDDD;}
	.st8{fill-rule:evenodd;clip-rule:evenodd;fill:#EEEEEF;}
	.st9{clip-path:url(#SVGID_2_);}
	.st10{clip-path:url(#SVGID_4_);}
	.st11{fill-rule:evenodd;clip-rule:evenodd;fill:url(#SVGID_5_);filter:url(#Adobe_OpacityMaskFilter);}
	.st12{mask:url(#id2_1_);fill-rule:evenodd;clip-rule:evenodd;fill:url(#SVGID_6_);}
	.st13{clip-path:url(#SVGID_10_);}
	.st14{fill-rule:evenodd;clip-rule:evenodd;fill:url(#SVGID_11_);filter:url(#Adobe_OpacityMaskFilter_1_);}
	.st15{mask:url(#id6_1_);fill-rule:evenodd;clip-rule:evenodd;fill:#FEFEFE;}
	.st16{clip-path:url(#SVGID_13_);}
	.st17{fill:none;}
	.st18{clip-path:url(#SVGID_15_);}
	.st19{clip-path:url(#SVGID_17_);}
	.st20{fill-rule:evenodd;clip-rule:evenodd;fill:url(#SVGID_18_);filter:url(#Adobe_OpacityMaskFilter_2_);}
	.st21{mask:url(#id11_1_);fill-rule:evenodd;clip-rule:evenodd;fill:url(#SVGID_19_);}
	.st22{clip-path:url(#SVGID_23_);}
	.st23{fill-rule:evenodd;clip-rule:evenodd;fill:url(#SVGID_24_);filter:url(#Adobe_OpacityMaskFilter_3_);}
	.st24{mask:url(#id15_1_);fill-rule:evenodd;clip-rule:evenodd;fill:#FEFEFE;}
	.st25{clip-path:url(#SVGID_26_);}
	.st26{fill-rule:evenodd;clip-rule:evenodd;fill:#E1EDE4;}
	.st27{fill-rule:evenodd;clip-rule:evenodd;fill:#6EAF7D;}
	.st28{fill-rule:evenodd;clip-rule:evenodd;fill:#B6B6B7;}
</style>
<g id="图层_x0020_1">
	<path class="st0" d="M1370.5,837.7c-8.8,2.9-17.9,5.3-26.8,8.1c-3,0.9-5.8,1.8-8.8,2.6c0.4-0.5,2.8-1.7,3.4-2
		c1.2-0.7,2.2-1.2,3.4-1.9l17.1-9.5c0.8-0.4,2.9-1.4,3.3-2c-0.6,0.4-1.2,0.7-1.9,1.1l-22.9,12.7c-0.7,0.4-3,1.4-3.4,2.1
		c5.3-1.7,12.8-3.8,18.3-5.5l17.3-5.2C1370.5,838,1370.2,838.1,1370.5,837.7L1370.5,837.7z"/>
	<path class="st1" d="M145.5,56c-4.2-0.8-10.6,25.5-14.4,42.3l17-0.3C151.8,81.2,149.7,56.8,145.5,56z"/>
	<path class="st1" d="M47.6,62.3c4.3,0,7.1,11.5,7.1,24.5c0,13.1-3.5,23.7-7.9,23.7S39,99.9,39,86.8C39,73.7,43.2,62.3,47.6,62.3
		L47.6,62.3z"/>
	<path class="st1" d="M82,25.5c-18,0-27.1,5-33.5,10.6c-1.9,1.7-5-24.2-20-10.4c-19.7,18.1,3.4,16.8,9.6,21.8
		c-17.4,2.1-21.6,8.3-21.4,16.1c0.6,25.5,9,72.2,65.3,85.2c11.8-2.7,21.4-7.1,29.4-12.6h-4.8v-12.5l20.1-0.3l0.4-16.5h9.3
		c8.5-17.2,10.7-30.9,10.9-43.3c0.2-7.8-4-14-21.4-16.1c6.2-5,29.4-3.7,9.6-21.8c-15-13.8-18.1,12-20,10.4
		C109.1,30.5,100,25.5,82,25.5L82,25.5z M106.6,136.2h-7.9h-1.3h-5.4v6.2h6.8v-6.2 M106.6,136.2L106.6,136.2L106.6,136.2z"/>
	<path class="st2" d="M22,92.6c7.2,23.2,23.6,47.8,60,56.2v-11.3l19.9-24.3C74.6,119.7,48,111.2,22,92.6L22,92.6z"/>
	<path class="st1" d="M49.8,134.1c1.2,0.9,2.3,1.7,3.6,2.6h0c0.4,0.3,0.8,0.5,1.2,0.8l0,0c0.4,0.2,0.8,0.5,1.2,0.8l0,0
		c0.4,0.2,0.8,0.5,1.2,0.7l0.1,0c0.4,0.2,0.8,0.5,1.2,0.7l0.1,0.1c0.4,0.2,0.8,0.4,1.2,0.6l0.1,0l0,0c0.4,0.2,0.8,0.4,1.2,0.7l0,0
		l0,0c0.4,0.2,0.8,0.4,1.2,0.6l0.2,0.1c0.4,0.2,0.8,0.4,1.2,0.6l0.2,0.1c0.4,0.2,0.7,0.3,1.1,0.5l0.3,0.1c0.4,0.2,0.7,0.3,1.1,0.5
		l0.3,0.1c0.4,0.2,0.8,0.3,1.1,0.5l0.4,0.2c0.4,0.2,0.7,0.3,1.1,0.4l0.4,0.2c0.4,0.2,0.8,0.3,1.2,0.4l0.3,0.1
		c0.4,0.1,0.8,0.3,1.2,0.4l0.4,0.1c0.4,0.1,0.8,0.3,1.2,0.4l0.3,0.1c0.4,0.1,0.8,0.2,1.2,0.4l0.5,0.2c0.4,0.1,0.7,0.2,1.1,0.3
		l0.2,0.1c5.5-1.2,11.5-2.9,17.4-5.1H92v-6.2h5.4h1.3h7.9v-12.5l19-0.2c0.4-0.5,0.8-0.9,1.2-1.4l0.3-15.1h9.3
		c2.3-4.7,4.2-9.5,5.6-14.3c-13.6,10.8-27.1,17.5-40.3,20.6C87.4,121.8,69.7,127.4,49.8,134.1L49.8,134.1z"/>
	<path class="st1" d="M45.5,130.2c-1-0.8-2-1.5-2.8-2.3l0,0c-21.4-21.2-25.6-51.4-26-69.1c-0.1-4.7,1.4-4.1,6.4-6
		c1.3-0.5,4.6,11.4,4.8,12.4C35,95.3,52.1,109.5,75.5,120L45.5,130.2z"/>
	<path class="st3" d="M19.1,50.7c-1.9,2.2-2.5,5-2.5,8.1c0.6,25.5,9,76.9,65.3,90v-11.3C29.9,125,20.3,77.1,19.1,50.7z"/>
	<path class="st4" d="M49.8,134.1L49.8,134.1L49.8,134.1c1.2,0.9,2.3,1.7,3.5,2.5l0,0c0.6,0.4,1.2,0.8,1.8,1.2l0.1,0.1
		c0.6,0.4,1.2,0.7,1.8,1.1l0.1,0c0.6,0.4,1.2,0.7,1.9,1.1l0.1,0.1c0.6,0.3,1.3,0.7,1.9,1l0.1,0c0.6,0.3,1.3,0.7,2,1l0.1,0.1
		c0.7,0.3,1.3,0.6,2,0.9l0.2,0.1c0.7,0.3,1.3,0.6,2,0.9l0.2,0.1c0.7,0.3,1.4,0.6,2.1,0.8l0.2,0.1c0.7,0.3,1.4,0.5,2.1,0.8L72,146
		c0.7,0.2,1.4,0.5,2.1,0.7l0.2,0.1c1.4,0.4,7.2,2.1,7.5,2.1v-11.3c-7.5-1.8-14.1-4.4-20-7.5C57.9,131.4,53.8,132.8,49.8,134.1
		L49.8,134.1z"/>
	<path class="st5" d="M17.2,54.2L17.2,54.2c-0.2,0.7-0.3,1.3-0.4,2l0,0c0,0.3-0.1,0.6-0.1,0.8l0,0l0,0.4l0,0c0,0.1,0,0.3,0,0.4l0,0
		c0,0.3,0,0.6,0,0.9l0,0l0,0.8v0.1l0,0.6l0,0.5l0,0.7l0,0.8l0,0.5l0,0.7l0,0.5v0.1l0.1,0.9v0l0,0.7l0,0.4l0.1,0.7l0,0.5
		c0,0.4,0.1,0.8,0.1,1.2l0.1,0.6l0.1,0.7l0,0.3c0.1,0.6,0.1,1.1,0.2,1.7l0,0.1l0.1,0.9l0,0.4l0.1,0.8l0.1,1.1l0.1,0.9l0.1,0.4
		c0.1,1,0.3,1.9,0.5,2.9l0,0.3c0.1,0.3,0.1,0.7,0.2,1v0c3,15.6,9.7,33.4,23.7,47.2l0,0l0,0l0,0c0.8,0.8,1.8,1.5,2.8,2.3l10.7-3.6
		C26.5,107.2,20,71.9,19.1,50.7C18.1,51.7,17.5,52.9,17.2,54.2L17.2,54.2z"/>
	<polygon class="st5" points="130.6,124.8 117.1,124.8 117.1,137.3 130.6,137.3 	"/>
	<polygon class="st5" points="120.7,138.5 111.7,138.5 111.7,146.8 120.7,146.8 	"/>
	<polygon class="st5" points="146.3,134.6 142,134.6 142,138.6 146.3,138.6 	"/>
	<polygon class="st5" points="160.7,130.9 156.4,130.9 156.4,134.8 160.7,134.8 	"/>
	<polygon class="st5" points="152.5,102.7 143,102.7 143,111.6 152.5,111.6 	"/>
	<polygon class="st5" points="152,123.8 147.7,123.8 147.7,127.7 152,127.7 	"/>
	<polygon class="st5" points="139.6,115.2 132.4,115.2 132.4,121.8 139.6,121.8 	"/>
	<polygon class="st6" points="70,51.2 94.9,51.2 88.7,60.5 76,60.5 	"/>
	<path class="st6" d="M78.9,61C65.5,108.7,11,86,21.4,57.3C25.1,38.7,79.4,45.1,78.9,61z M72.9,62.3c-11.4,38.9-56.6,21.8-47-2.7
		C28.9,44.7,74,47.8,72.9,62.3z"/>
	<polygon class="st1" points="39.3,44.6 58.1,42.2 47.3,54.7 39.3,54.7 	"/>
	<polygon class="st6" points="67.3,56 46.7,56 46.7,48.9 67.3,48.9 	"/>
	<path class="st2" d="M78.9,61C65.5,108.7,11,86,21.4,57.3c1.1-5.4,6.4-8.7,13.5-10.3c1.1,0.1,2.1,0.2,3.3,0.4
		c-0.4-0.3-0.8-0.6-1.3-0.8C54.1,43.7,79.2,50.2,78.9,61L78.9,61z M72.9,62.3c-11.4,38.9-56.6,21.8-47-2.7
		C28.9,44.7,74,47.8,72.9,62.3z"/>
	<path class="st2" d="M45,43.8l13.1-1.7L47.3,54.7h-5.6c0-0.6,0-1.2-0.1-1.8C41.6,49.3,42.4,46.1,45,43.8z"/>
	<polygon class="st2" points="67.3,56 46.7,56 46.7,48.9 67.3,48.9 	"/>
	<path class="st2" d="M82,27.2c-38.8,0-54.7,33.9-53.8,53.4c0.9,19.5,34.7,30.2,53.8,32.1c19.1-1.9,52.9-12.5,53.8-32.1
		C136.8,61.1,120.8,27.2,82,27.2z"/>
	<path class="st7" d="M82,89.7l-12.7-7.5c0.9-5.1,3-10.3,12.7-10.4V89.7z"/>
	<path class="st8" d="M71.3,28.2c-31,5.6-43.9,34.8-43.1,52.5c0.9,19.5,34.7,30.2,53.8,32.1l0,0v-2.9l0,0
		c-42.8-8.6-27.9-33.3-27.9-33.3c-1.7-7.5,0.8-12,8-13C54.4,45.3,71,28.4,71.3,28.2L71.3,28.2z"/>
	<path class="st1" d="M53.6,53.5c-0.1,2,3.2,13.8,24,11.6C72.5,72.4,59.6,78.7,43.4,76c3.4-1.4,6.4-2.9,5.1-6.1
		C47.2,66.7,44.4,60.7,53.6,53.5L53.6,53.5z"/>
	<g>
		<defs>
			<polygon id="SVGID_1_" points="44.5,47.1 52.7,47.1 70.7,79.5 62.6,79.5 			"/>
		</defs>
		<clipPath id="SVGID_2_">
			<use xlink:href="#SVGID_1_"  style="overflow:visible;"/>
		</clipPath>
		<g class="st9">
			<g>
				<defs>
					<polygon id="SVGID_3_" points="62.6,79.5 70.4,79.5 70.4,78.9 52.7,47.1 44.5,47.1 					"/>
				</defs>
				<clipPath id="SVGID_4_">
					<use xlink:href="#SVGID_3_"  style="overflow:visible;"/>
				</clipPath>
				<g class="st10">
					<defs>
						<filter id="Adobe_OpacityMaskFilter" filterUnits="userSpaceOnUse" x="43.6" y="47.1" width="27.7" height="32.4">
							<feColorMatrix  type="matrix" values="1 0 0 0 0  0 1 0 0 0  0 0 1 0 0  0 0 0 1 0"/>
						</filter>
					</defs>
					<mask maskUnits="userSpaceOnUse" x="43.6" y="47.1" width="27.7" height="32.4" id="id2_1_">
						
							<linearGradient id="SVGID_5_" gradientUnits="userSpaceOnUse" x1="15580.2617" y1="-39112.4961" x2="16758.5156" y2="-38841.0156" gradientTransform="matrix(2.834646e-02 0 0 -2.834646e-02 -400.8735 -1041.5623)">
							<stop  offset="0" style="stop-color:#FFFFFF"/>
							<stop  offset="1" style="stop-color:#FFFFFF;stop-opacity:0"/>
						</linearGradient>
						<rect x="43.6" y="47.1" class="st11" width="27.7" height="32.4"/>
					</mask>
					
						<linearGradient id="SVGID_6_" gradientUnits="userSpaceOnUse" x1="15686.1826" y1="-39088.0898" x2="16652.5957" y2="-38865.4219" gradientTransform="matrix(2.834646e-02 0 0 -2.834646e-02 -400.8735 -1041.5623)">
						<stop  offset="0" style="stop-color:#FFFFFF"/>
						<stop  offset="1" style="stop-color:#FFFFFF"/>
					</linearGradient>
					<polygon class="st12" points="43.6,47.1 71.3,47.1 71.3,79.5 43.6,79.5 					"/>
				</g>
			</g>
			<g>
				<defs>
					<polygon id="SVGID_7_" points="44.5,47.1 52.7,47.1 70.7,79.5 62.6,79.5 					"/>
				</defs>
				<clipPath id="SVGID_8_">
					<use xlink:href="#SVGID_7_"  style="overflow:visible;"/>
				</clipPath>
			</g>
			<g>
				<defs>
					<polygon id="SVGID_9_" points="62.6,79.5 70.4,79.5 70.4,78.9 52.7,47.1 44.5,47.1 					"/>
				</defs>
				<clipPath id="SVGID_10_">
					<use xlink:href="#SVGID_9_"  style="overflow:visible;"/>
				</clipPath>
				<g class="st13">
					<g id="_441767128">
						<defs>
							<filter id="Adobe_OpacityMaskFilter_1_" filterUnits="userSpaceOnUse" x="44.8" y="47.3" width="25.4" height="32.1">
								<feColorMatrix  type="matrix" values="1 0 0 0 0  0 1 0 0 0  0 0 1 0 0  0 0 0 1 0"/>
							</filter>
						</defs>
						<mask maskUnits="userSpaceOnUse" x="44.8" y="47.3" width="25.4" height="32.1" id="id6_1_">
							
								<linearGradient id="SVGID_11_" gradientUnits="userSpaceOnUse" x1="15619.6357" y1="-39103.7344" x2="16719.1406" y2="-38850.4531" gradientTransform="matrix(2.834646e-02 0 0 -2.834646e-02 -400.8735 -1041.5623)">
								<stop  offset="0" style="stop-color:#FFFFFF"/>
								<stop  offset="1" style="stop-color:#FFFFFF;stop-opacity:0"/>
							</linearGradient>
							<rect x="44.7" y="47.2" class="st14" width="25.6" height="32.2"/>
						</mask>
						<polygon class="st15" points="44.8,47.3 52.6,47.3 70.2,79.3 62.4,79.3 						"/>
					</g>
				</g>
			</g>
			<g>
				<defs>
					<polygon id="SVGID_12_" points="44.5,47.1 52.7,47.1 70.7,79.5 62.6,79.5 					"/>
				</defs>
				<clipPath id="SVGID_13_">
					<use xlink:href="#SVGID_12_"  style="overflow:visible;"/>
				</clipPath>
				<g class="st16">
					<polygon class="st17" points="44.5,79.5 70.4,79.5 70.4,47.1 44.5,47.1 					"/>
				</g>
			</g>
		</g>
	</g>
	<polygon class="st17" points="44.5,47.1 52.7,47.1 70.7,79.5 62.6,79.5 	"/>
	<g>
		<defs>
			<polygon id="SVGID_14_" points="34.3,48.4 42.4,48.4 62.7,85.5 54.6,85.5 			"/>
		</defs>
		<clipPath id="SVGID_15_">
			<use xlink:href="#SVGID_14_"  style="overflow:visible;"/>
		</clipPath>
		<g class="st18">
			<g>
				<defs>
					<polygon id="SVGID_16_" points="54.6,85.5 62.7,85.5 42.4,48.4 34.3,48.4 					"/>
				</defs>
				<clipPath id="SVGID_17_">
					<use xlink:href="#SVGID_16_"  style="overflow:visible;"/>
				</clipPath>
				<g class="st19">
					<defs>
						<filter id="Adobe_OpacityMaskFilter_2_" filterUnits="userSpaceOnUse" x="32.7" y="48.4" width="31.6" height="37.1">
							<feColorMatrix  type="matrix" values="1 0 0 0 0  0 1 0 0 0  0 0 1 0 0  0 0 0 1 0"/>
						</filter>
					</defs>
					<mask maskUnits="userSpaceOnUse" x="32.7" y="48.4" width="31.6" height="37.1" id="id11_1_">
						
							<linearGradient id="SVGID_18_" gradientUnits="userSpaceOnUse" x1="15145.9785" y1="-39407.8086" x2="16561.1523" y2="-38804.5391" gradientTransform="matrix(2.834646e-02 0 0 -2.834646e-02 -400.8735 -1041.5623)">
							<stop  offset="0" style="stop-color:#FFFFFF"/>
							<stop  offset="1" style="stop-color:#FFFFFF;stop-opacity:0"/>
						</linearGradient>
						<rect x="32.7" y="48.4" class="st20" width="31.6" height="37.1"/>
					</mask>
					
						<linearGradient id="SVGID_19_" gradientUnits="userSpaceOnUse" x1="15301.625" y1="-39341.4492" x2="16405.5059" y2="-38870.8984" gradientTransform="matrix(2.834646e-02 0 0 -2.834646e-02 -400.8735 -1041.5623)">
						<stop  offset="0" style="stop-color:#FFFFFF"/>
						<stop  offset="1" style="stop-color:#FFFFFF"/>
					</linearGradient>
					<polygon class="st21" points="32.7,48.4 64.3,48.4 64.3,85.5 32.7,85.5 					"/>
				</g>
			</g>
			<g>
				<defs>
					<polygon id="SVGID_20_" points="34.3,48.4 42.4,48.4 62.7,85.5 54.6,85.5 					"/>
				</defs>
				<clipPath id="SVGID_21_">
					<use xlink:href="#SVGID_20_"  style="overflow:visible;"/>
				</clipPath>
			</g>
			<g>
				<defs>
					<polygon id="SVGID_22_" points="54.6,85.5 62.7,85.5 42.4,48.4 34.3,48.4 					"/>
				</defs>
				<clipPath id="SVGID_23_">
					<use xlink:href="#SVGID_22_"  style="overflow:visible;"/>
				</clipPath>
				<g class="st22">
					<g>
						<defs>
							<filter id="Adobe_OpacityMaskFilter_3_" filterUnits="userSpaceOnUse" x="34.5" y="48.6" width="28" height="36.7">
								<feColorMatrix  type="matrix" values="1 0 0 0 0  0 1 0 0 0  0 0 1 0 0  0 0 0 1 0"/>
							</filter>
						</defs>
						<mask maskUnits="userSpaceOnUse" x="34.5" y="48.6" width="28" height="36.7" id="id15_1_">
							
								<linearGradient id="SVGID_24_" gradientUnits="userSpaceOnUse" x1="15201.7949" y1="-39384.3945" x2="16505.3359" y2="-38828.625" gradientTransform="matrix(2.834646e-02 0 0 -2.834646e-02 -400.8735 -1041.5623)">
								<stop  offset="0" style="stop-color:#FFFFFF"/>
								<stop  offset="1" style="stop-color:#FFFFFF;stop-opacity:0"/>
							</linearGradient>
							<rect x="34.4" y="48.5" class="st23" width="28.2" height="36.9"/>
						</mask>
						<polygon class="st24" points="34.5,48.6 42.3,48.6 62.5,85.3 54.7,85.3 						"/>
					</g>
				</g>
			</g>
			<g>
				<defs>
					<polygon id="SVGID_25_" points="34.3,48.4 42.4,48.4 62.7,85.5 54.6,85.5 					"/>
				</defs>
				<clipPath id="SVGID_26_">
					<use xlink:href="#SVGID_25_"  style="overflow:visible;"/>
				</clipPath>
				<g class="st25">
					<polygon class="st17" points="34.3,85.5 62.7,85.5 62.7,48.4 34.3,48.4 					"/>
				</g>
			</g>
		</g>
	</g>
	<polygon class="st17" points="34.3,48.4 42.4,48.4 62.7,85.5 54.6,85.5 	"/>
	<path class="st6" d="M110.4,53.5c0.1,2-3.2,13.8-24,11.6c5.1,7.3,18.1,13.6,34.3,10.9c-3.4-1.4-6.4-2.9-5.1-6.1
		C116.8,66.7,119.6,60.7,110.4,53.5L110.4,53.5z"/>
	<path class="st1" d="M81.1,92.3c-3.2-1.2-11-6.5-11.8-9c-0.9-2.9,5.3-6.7,12.7-6.7s13.6,3.8,12.7,6.7c-0.8,2.6-8.6,7.8-11.8,9v0.2
		v3.8H82h-0.9v-3.8V92.3z"/>
	<path class="st2" d="M61,65.7c1.4,0,2.5,1,2.5,2.3c0,1.3-1.1,2.3-2.5,2.3s-2.5-1-2.5-2.3C58.5,66.8,59.6,65.7,61,65.7z"/>
	<polygon class="st2" points="82,25.2 111.6,28.5 137.6,55 137.2,94.4 95.4,113 82,113 	"/>
	<path class="st26" d="M100.3,30.3l2.1,0.2c0.6,0.1,6.6,0.7,7.2,0.7c0.1,0.2,0.4,0.4,0.5,0.6l0.7,0.7c0.1,0.1,0.1,0.1,0.2,0.2
		c0.1,0.1,0.1,0.1,0.2,0.2c0.1,0.1,0.1,0.1,0.2,0.2l0.7,0.7c0.3,0.4,0.7,0.7,1,1.1l1,1.1c0.1,0.1,0.1,0.1,0.2,0.2l0.5,0.5
		c0.1,0.1,0.1,0.1,0.2,0.2c0.1,0.1,0.1,0.1,0.1,0.2c0.1,0.1,0.2,0.2,0.4,0.4c0.5,0.4,1.1,1.2,1.6,1.6l0.5,0.5
		c0.6,0.6,1.1,1.2,1.7,1.8c0.1,0.1,0.1,0.1,0.2,0.2c0.1,0.1,0.1,0.1,0.2,0.2c0.1,0.1,0.2,0.2,0.3,0.3l0.4,0.4
		c0.1,0.1,0.1,0.1,0.2,0.2l4.3,4.4c0.1,0.1,0.1,0.1,0.2,0.2l1.9,1.9c0.4,0.5,0.9,0.9,1.4,1.4c0.3,0.4,0.7,0.7,1,1
		c0.1,0.1,0.1,0.1,0.2,0.2c0.1,0.1,0.1,0.1,0.2,0.2l1.1,1c0.1,0.1,0.2,0.2,0.3,0.3l1.2,1.2c0.1,0.1,0.1,0.1,0.2,0.2
		c0.1,0.1,0.2,0.2,0.4,0.4c0.5,0.5,1.1,1.2,1.6,1.6c0.1,0.1,0.1,0.1,0.2,0.2c0.2,0.2,0.5,0.3,0.4,0.6c-0.1,0.3-0.1,1.3-0.1,1.6
		c0,1.3-0.1,2.6-0.1,3.9c0,0.2,0,0.4,0,0.6c0,0.6,0,1.4-0.1,1.9l-0.1,1.9c0-0.6-14.8-5-14.8-5l-9.8-13.1L100.3,30.3L100.3,30.3z"/>
	<polygon class="st27" points="82,90.5 82,76.6 95,81.1 95.5,82.7 	"/>
	<path class="st26" d="M112.7,79.2c1.2,1.6,6,19.9,6,19.9l15-6.7l0.5-16l-7,1L112.7,79.2L112.7,79.2z"/>
	<path class="st28" d="M78.9,62.9c-9,32.1-36.4,32.6-50.3,20.5c0-0.2-0.1-0.3-0.2-0.9s-0.3-2.5-0.2-3.9C38,91.2,64.5,92.7,72.9,64.2
		C73.7,54,50,49.5,35.8,53c1.1-1.7,2.2-3.7,3.5-5.3c10.3-1,23.8,1.4,31.6,5.4H82v9.3h-3.2C78.9,62.6,78.9,62.8,78.9,62.9z"/>
	<path class="st1" d="M78.9,61c-9,32.1-36.7,32.3-50.6,20.2c0-0.2,0-0.4,0-0.6c-0.1-1.3,0-2.6,0-3.9C38,89.2,64.5,90.8,72.9,62.2
		C73.7,52,51.2,47.5,37,51c1.1-1.7,2.2-3.3,3.5-4.8c10.3-1,22.5,1,30.3,5H82v9.3h-3.2C78.9,60.7,78.9,60.8,78.9,61L78.9,61z"/>
	<path class="st8" d="M95.5,82.7L82,90l0,19.8h0v3.2h8.1c0.2-0.1,4.8,0,5.2,0c0.1,0,23.1-10.3,24.8-11l17-7.6c0-0.6,0-1.1,0-1.6
		c0-0.3,0-0.5,0-0.8l0.1-2.9c0-0.2,0-0.2,0-0.4c0-0.3,0-0.6,0-0.8c0.1-1,0.1-2.3,0.1-3.3l0-1.2c0-0.2,0-0.2,0-0.4c0-0.3,0-0.6,0-0.8
		l0.2-4.9c0-0.3,0-0.6,0-0.8l0.1-1.6c0-0.6,0-1.1,0-1.7l0.1-1.6c0-0.6,0-1.1,0-1.7c0-0.3,0-0.5,0-0.8l0.1-3.2c0-0.3,0-0.6,0-0.8
		l0.1-1.6c0-0.6,0-1.1,0-1.7l0-1.2c0-0.2,0-0.2,0-0.4c0-0.3,0-0.6,0-0.8l0.1-2.4c0-0.2,0-0.7,0-0.8c0-0.2-1.5-1.6-1.7-1.8l-1.5-1.6
		c-0.1-0.1-0.1-0.1-0.2-0.2c-0.1-0.2-0.3-0.3-0.5-0.4c-0.1-0.1-0.1-0.1-0.2-0.2c-0.8-0.7-1.7-1.8-2.4-2.5l-0.4-0.5
		c-0.1-0.1-0.3-0.4-0.4-0.4c2.8-1.3,6-2.6,8.9-3.9c2.2-1,4.5-1.9,6.7-2.9l2.2-1v-0.2c-0.1-0.1-0.3-1.1-0.3-1.3l-0.8-3.8
		c-0.5-2.5-1-5.1-1.6-7.5c-0.4-1.7-0.7-3.4-1.1-5c-0.2-0.7-0.4-1.9-0.5-2.5h-0.9l-0.2,0c-0.4,0-0.8,0-1.1,0c-0.2,0-0.4,0-0.6,0
		l-3.2,0.1c-0.4,0-0.9,0-1.3,0l-3.8,0.1c-0.9,0-1.7,0-2.6,0c-0.2,0-0.4,0-0.6,0l-2.6,0c-0.2,0-0.4,0-0.6,0c-0.4,0-0.9,0-1.3,0
		c-0.8,0-0.5,0-0.9,0.4l-0.9,0.9c-0.1,0.1-0.2,0.2-0.3,0.3l-3.8,3.6c-0.1,0.1-0.2,0.2-0.3,0.3l-5.3,5c-0.1-0.1-0.2-0.2-0.3-0.3
		c-0.1-0.1-0.2-0.2-0.3-0.3l-2-2.1c-0.4-0.4-0.3-0.3-1.4-0.4c-0.7-0.1-1.5-0.2-2.2-0.2c-8.7-1-17.5-2.4-26-3.2v3.7
		c0.2,0,0.5,0,0.7,0.1c1.8,0.2,3.6,0.4,5.4,0.6c0.6,0.1,1.2,0.2,1.8,0.2c0.6,0.1,1.2,0.1,1.8,0.2c1.2,0.1,2.3,0.2,3.6,0.4
		c2.4,0.3,4.8,0.5,7.2,0.7c0.6,0.1,6.6,0.7,7.2,0.7c0.1,0.2,0.4,0.4,0.5,0.6l0.7,0.7c0.1,0.1,0.1,0.1,0.2,0.2
		c0.1,0.1,0.1,0.1,0.2,0.2s0.1,0.1,0.2,0.2l0.7,0.7c0.3,0.4,0.7,0.7,1,1.1l1,1.1c0.1,0.1,0.1,0.1,0.2,0.2l0.5,0.5
		c0.1,0.1,0.1,0.1,0.2,0.2c0.1,0.1,0.1,0.1,0.1,0.2c0.1,0.1,0.2,0.2,0.4,0.4c0.5,0.4,1.1,1.2,1.6,1.6l0.5,0.5
		c0.6,0.6,1.1,1.2,1.7,1.8c0.1,0.1,0.1,0.1,0.2,0.2c0.1,0.1,0.1,0.1,0.2,0.2c0.1,0.1,0.2,0.2,0.3,0.3l0.4,0.4
		c0.1,0.1,0.1,0.1,0.2,0.2l4.3,4.4c0.1,0.1,0.1,0.1,0.2,0.2l1.9,1.9c0.4,0.5,0.9,0.9,1.4,1.4c0.3,0.4,0.7,0.7,1,1
		c0.1,0.1,0.1,0.1,0.2,0.2c0.1,0.1,0.1,0.1,0.2,0.2l1.1,1c0.1,0.1,0.2,0.2,0.3,0.3l1.2,1.2c0.1,0.1,0.1,0.1,0.2,0.2
		c0.1,0.1,0.2,0.2,0.4,0.4c0.5,0.5,1.1,1.2,1.6,1.6c0.1,0.1,0.1,0.1,0.2,0.2c0.2,0.2,0.5,0.3,0.4,0.6c-0.1,0.3-0.1,1.3-0.1,1.6
		c0,1.3-0.1,2.6-0.1,3.9c0,0.2,0,0.4,0,0.6c0,0.6,0,1.4-0.1,1.9l-0.1,1.9c0,0.3,0,0.4,0,0.6c0,0.5,0,0.9,0,1.3
		c0,0.9-0.1,1.7-0.1,2.6c0,0.4,0,0.8,0,1.3c0,0.2,0,0.4,0,0.6c0,0.2,0,0.4,0,0.6c0,0.2,0,0.4,0,0.6c0,0.2,0,0.4,0,0.6
		c-0.1,0.5-0.1,1.4-0.1,1.9c0,0.3,0,0.4,0,0.6c0,0.2,0,0.5,0,0.7c0,0.2,0,0.4,0,0.6c0,0.9-0.1,1.7-0.1,2.6c0,0.5,0,0.8,0,1.3
		c0,0.2,0,0.4,0,0.6c0,0.2,0,0.4,0,0.6c0,0.2,0,0.4,0,0.6l-0.1,1.9c0,0.2,0,0.5,0,0.7c0,0.3,0,0.4,0,0.6l-0.1,3.8
		c0,0.1-1,0.5-1.2,0.5l-8,3.6c-3.2,1.4-6.2,2.8-9.2,4.1l-16,7.1c-0.3,0.2-2.1,1-2.2,1l-2.9,1.3c-2,0-5.1-0.1-7-0.1h-0.5
		c0-4.4,0.1-13.2,0.1-14.6c0.5-0.1,0.9-0.2,1.4-0.4c1.4-0.4,9.6-2.8,9.7-2.8l4.3-2.2c0.1-0.3,0.1-0.3,0-0.6l-0.6-1.4
		c-0.7-1.6-1.3-3.1-2-4.7c-0.1-0.2-0.1-0.3-0.2-0.5c-0.6-1.4-1.2-2.8-1.8-4.2c-0.2-0.5-0.6-1.4-0.8-1.8c0.2,0,10.3,1.7,11.2,1.9
		c1.2,0.2,2.5,0.4,3.7,0.6c1,0.2,0.9,0.2,1.9,0c1.2-0.2,13.3-1.6,13.6-1.7c-0.5-0.3-1.8-1.4-2.4-1.8c-0.4-0.3-0.8-0.6-1.2-0.9
		c-1.2-0.9-2.3-1.8-3.6-2.6l-2.4-1.7c0-0.3,0.3-1.4,0.4-1.7c0.2-0.8,1.7-6.3,1.6-6.4l-9.8-13.1c-0.2,0.2-3.9,4.4-4.3,4.8
		c-1.8,2-3.6,4-5.3,6c-0.2,0.2-0.9,1.1-1.1,1.2c-0.1,0.1-9.1,2-10.6,2.4c-0.3,0.1-0.7,0.1-0.9,0.2c0,0.2,0.6,1.4,0.7,1.7
		c0.2,0.6,0.5,1.1,0.7,1.7c0.3,0.7,4.1,9.9,4.2,10c0.8,2.2,1.5,3.6,2.3,5.6L95.5,82.7z"/>
	<path class="st1" d="M116.7,33.7c0.1-0.2,0.9-0.9,1.1-1.1l8.8-8.3c0.4-0.3,0.2-0.4,0.7-0.4c0.4,0,0.7,0,1.1,0c0.4,0,0.8,0,1.1,0
		c0.4,0,0.7,0,1.1,0c1.3,0,2.6-0.1,3.9-0.1c0.2,0,0.3,0,0.5,0l2.8,0c0.2,0,0.3,0,0.5,0c0.4,0,0.8,0,1.1,0l1.1,0c0.4,0,0.7,0,1.1,0
		c0.1,0.3,0.1,0.6,0.2,1c0.1,0.3,0.1,0.6,0.2,0.9l0.8,3.8c0.5,2.4,1.1,5.1,1.6,7.6l0.4,1.9l-3.5,1.5c-0.2,0.1-0.4,0.1-0.5,0.2
		l-3,1.3c-0.3,0.2-0.7,0.3-1,0.4c-0.4,0.1-0.7,0.3-1,0.4l-3,1.3c-0.2,0.1-3.9,1.7-4.1,1.8l-4.1-4.2c-0.1-0.1-0.2-0.2-0.4-0.4
		l-3.3-3.4c-0.4-0.5-1.2-1.2-1.7-1.7l-0.9-0.9c-0.1-0.1-0.1-0.1-0.2-0.2l-1.1-1.1C116.8,33.7,116.7,33.7,116.7,33.7L116.7,33.7z"/>
	<path class="st2" d="M103,65.7c-1.4,0-2.5,1-2.5,2.3c0,1.3,1.1,2.3,2.5,2.3s2.5-1,2.5-2.3C105.5,66.8,104.4,65.7,103,65.7z"/>
	<path class="st27" d="M92.4,66c0.4-0.1,1.1-0.2,1.5-0.3l6-1.3c1.7-0.4,1.1-0.1,2.2-1.3l2.5-2.8c0.3-0.3,0.6-0.6,0.8-0.9
		c0.3-0.3,0.5-0.6,0.8-0.9c0.9-1,2-2.2,2.9-3.3c0.1-0.1,0.3-0.4,0.4-0.4c0.1,0.1,0.1,0.2,0.2,0.2l5.7,7.6c0.5,0.6,0.4,0.4,0.3,1.1
		c-0.2,0.8-2.1,7.8-2.1,8.1l4.9,3.6c-1,0.1-1.9,0.2-2.9,0.4c-0.5,0.1-0.9,0.1-1.4,0.2c-0.3,0-0.5,0.1-0.7,0.1
		c-0.8,0.1-0.6,0.2-1.5,0c-0.2,0-0.4-0.1-0.5-0.1c-0.3-0.1-0.7-0.1-1.1-0.2L95.3,73l-0.7-1.8c-0.6-1.4-1.2-2.9-1.8-4.4
		C92.6,66.7,92.4,66.2,92.4,66L92.4,66z"/>
	<path class="st2" d="M103,65.7c-1.4,0-2.5,1-2.5,2.3s1.1,2.3,2.5,2.3s2.5-1,2.5-2.3S104.4,65.7,103,65.7z"/>
	<path class="st26" d="M92.4,90.1c-0.1,0.1,0,0-0.2,0.1l-3.7,1.1c-1.2,0.4-2.8,0.8-3.9,1.2c0.1-0.1,0.6-0.3,0.7-0.4l4.9-2.6
		c0.1-0.1,0.3-0.1,0.4-0.2l4.7-2.5c0.2-0.1,1.4-0.8,1.6-0.8c0.1,0.2,0.2,0.4,0.3,0.6l0.6,1.4c0.1,0.2,0.2,0.5,0.3,0.7
		c-0.5,0.2-0.9,0.3-1.4,0.4c-0.5,0.1-0.9,0.3-1.4,0.4C94.8,89.5,92.6,90.1,92.4,90.1L92.4,90.1z"/>
	<polygon class="st26" points="82,71.8 93.2,77.1 94.8,81.1 82,76.6 	"/>
	<path class="st2" d="M35.5,35.3c2.9-2.8,7.2-1.2,11,2c-2.2,1.8-5,3.5-7.6,8C38.5,44.8,32.7,37.9,35.5,35.3L35.5,35.3z"/>
	<polygon class="st2" points="119.1,36.1 126.1,30.5 134.2,30.6 135.8,38.4 126.5,43.7 	"/>
	<polygon class="st1" points="128.5,126.9 117.2,126.9 117.2,137.3 128.5,137.3 	"/>
	<polygon class="st1" points="119.3,139.9 111.8,139.9 111.8,146.8 119.3,146.8 	"/>
	<polygon class="st1" points="145.6,135.3 142,135.3 142,138.6 145.6,138.6 	"/>
	<polygon class="st1" points="160,131.5 156.4,131.5 156.4,134.8 160,134.8 	"/>
	<polygon class="st1" points="151,104.2 143,104.2 143,111.6 151,111.6 	"/>
	<polygon class="st1" points="151.4,124.4 147.8,124.4 147.8,127.7 151.4,127.7 	"/>
	<polygon class="st1" points="138.5,116.3 132.5,116.3 132.5,121.8 138.5,121.8 	"/>
	<path class="st1" d="M58.1,88.7c3.7,5.5-2.2,15.6-13.3,22.7s-22.9,8.5-26.6,3c-3.7-5.5,2.2-15.6,13.3-22.7S54.4,83.2,58.1,88.7z"/>
	<path class="st4" d="M58.1,88.7c3.7,5.5-2.2,15.6-13.3,22.7s-22.9,8.5-26.6,3c-0.4-0.6-0.7-1.2-0.9-1.9c5.4,0.3,12.6-1.8,19.5-6.3
		c9.8-6.3,15.6-15.1,14.1-20.8C54.2,85.6,56.7,86.6,58.1,88.7L58.1,88.7z"/>
	<path class="st4" d="M50.3,106.3c-1.2,2.5-1.3,3.9-4.3,3.9c-3,0-7-10.1-7-23.4c0-4.1,0.9-16.6,5.3-22.2V67h1c-1.1,3.5-2,8.1-2,14.9
		c0,10.3,4.5,24.4,6.7,24.4S50.2,106.3,50.3,106.3L50.3,106.3z"/>
</g>
</svg>
